<?xml version="1.0" encoding="UTF-8" standalone="no" ?>
<!DOCTYPE svg PUBLIC "-//W3C//DTD SVG 1.1//EN" "http://www.w3.org/Graphics/SVG/1.1/DTD/svg11.dtd">
<svg xmlns="http://www.w3.org/2000/svg" xmlns:xlink="http://www.w3.org/1999/xlink" version="1.1" width="1080" height="1080" viewBox="0 0 1080 1080" xml:space="preserve">
<desc>Created with Fabric.js 5.2.4</desc>
<defs>
</defs>
<rect x="0" y="0" width="100%" height="100%" fill="transparent"></rect>
<g transform="matrix(1 0 0 1 540 540)" id="182b1a10-aed4-4ebc-817a-0bd30a315d1d"  >
</g>
<g transform="matrix(1 0 0 1 540 540)" id="307d1da9-77bd-4e5b-ae80-d795eb6cd549"  >
<rect style="stroke: none; stroke-width: 1; stroke-dasharray: none; stroke-linecap: butt; stroke-dashoffset: 0; stroke-linejoin: miter; stroke-miterlimit: 4; fill: rgb(255,255,255); fill-rule: nonzero; opacity: 1; visibility: hidden;" vector-effect="non-scaling-stroke"  x="-540" y="-540" rx="0" ry="0" width="1080" height="1080" />
</g>
<g transform="matrix(1 0 0 1 152.59 683.7)"  >
<circle style="stroke: none; stroke-width: 1; stroke-dasharray: none; stroke-linecap: butt; stroke-dashoffset: 0; stroke-linejoin: miter; stroke-miterlimit: 4; fill: rgb(240,240,240); fill-rule: nonzero; opacity: 1;" vector-effect="non-scaling-stroke"  cx="0" cy="0" r="4.25197" />
</g>
<g transform="matrix(1 0 0 1 358.29 915.35)"  >
<circle style="stroke: none; stroke-width: 1; stroke-dasharray: none; stroke-linecap: butt; stroke-dashoffset: 0; stroke-linejoin: miter; stroke-miterlimit: 4; fill: rgb(240,240,240); fill-rule: nonzero; opacity: 1;" vector-effect="non-scaling-stroke"  cx="0" cy="0" r="4.25197" />
</g>
<g transform="matrix(1 0 0 1 626.29 900.35)"  >
<circle style="stroke: none; stroke-width: 1; stroke-dasharray: none; stroke-linecap: butt; stroke-dashoffset: 0; stroke-linejoin: miter; stroke-miterlimit: 4; fill: rgb(240,240,240); fill-rule: nonzero; opacity: 1;" vector-effect="non-scaling-stroke"  cx="0" cy="0" r="4.25197" />
</g>
<g transform="matrix(0 0 0 0 0 0)"  >
<g style=""   >
</g>
</g>
<g transform="matrix(0 0 0 0 0 0)"  >
<g style=""   >
</g>
</g>
<g transform="matrix(1 0 0 1 627.7 659.08)"  >
<rect style="stroke: none; stroke-width: 1; stroke-dasharray: none; stroke-linecap: butt; stroke-dashoffset: 0; stroke-linejoin: miter; stroke-miterlimit: 4; fill: rgb(41,41,84); fill-rule: nonzero; opacity: 1;" vector-effect="non-scaling-stroke"  x="-375" y="-250" rx="0" ry="0" width="750" height="500" />
</g>
<g transform="matrix(1 0 0 1 627.7 450.88)"  >
<rect style="stroke: none; stroke-width: 1; stroke-dasharray: none; stroke-linecap: butt; stroke-dashoffset: 0; stroke-linejoin: miter; stroke-miterlimit: 4; fill: rgb(255,255,255); fill-rule: nonzero; opacity: 0.05;" vector-effect="non-scaling-stroke"  x="-375" y="-5.465" rx="0" ry="0" width="750" height="10.93" />
</g>
<g transform="matrix(1 0 0 1 627.7 470.88)"  >
<rect style="stroke: none; stroke-width: 1; stroke-dasharray: none; stroke-linecap: butt; stroke-dashoffset: 0; stroke-linejoin: miter; stroke-miterlimit: 4; fill: rgb(255,255,255); fill-rule: nonzero; opacity: 0.05;" vector-effect="non-scaling-stroke"  x="-375" y="-5.465" rx="0" ry="0" width="750" height="10.93" />
</g>
<g transform="matrix(1 0 0 1 627.7 490.88)"  >
<rect style="stroke: none; stroke-width: 1; stroke-dasharray: none; stroke-linecap: butt; stroke-dashoffset: 0; stroke-linejoin: miter; stroke-miterlimit: 4; fill: rgb(255,255,255); fill-rule: nonzero; opacity: 0.05;" vector-effect="non-scaling-stroke"  x="-375" y="-5.465" rx="0" ry="0" width="750" height="10.93" />
</g>
<g transform="matrix(1 0 0 1 627.7 510.88)"  >
<rect style="stroke: none; stroke-width: 1; stroke-dasharray: none; stroke-linecap: butt; stroke-dashoffset: 0; stroke-linejoin: miter; stroke-miterlimit: 4; fill: rgb(255,255,255); fill-rule: nonzero; opacity: 0.05;" vector-effect="non-scaling-stroke"  x="-375" y="-5.465" rx="0" ry="0" width="750" height="10.93" />
</g>
<g transform="matrix(1 0 0 1 627.7 530.88)"  >
<rect style="stroke: none; stroke-width: 1; stroke-dasharray: none; stroke-linecap: butt; stroke-dashoffset: 0; stroke-linejoin: miter; stroke-miterlimit: 4; fill: rgb(255,255,255); fill-rule: nonzero; opacity: 0.05;" vector-effect="non-scaling-stroke"  x="-375" y="-5.465" rx="0" ry="0" width="750" height="10.93" />
</g>
<g transform="matrix(1 0 0 1 627.7 550.88)"  >
<rect style="stroke: none; stroke-width: 1; stroke-dasharray: none; stroke-linecap: butt; stroke-dashoffset: 0; stroke-linejoin: miter; stroke-miterlimit: 4; fill: rgb(255,255,255); fill-rule: nonzero; opacity: 0.05;" vector-effect="non-scaling-stroke"  x="-375" y="-5.465" rx="0" ry="0" width="750" height="10.93" />
</g>
<g transform="matrix(1 0 0 1 627.7 570.88)"  >
<rect style="stroke: none; stroke-width: 1; stroke-dasharray: none; stroke-linecap: butt; stroke-dashoffset: 0; stroke-linejoin: miter; stroke-miterlimit: 4; fill: rgb(255,255,255); fill-rule: nonzero; opacity: 0.05;" vector-effect="non-scaling-stroke"  x="-375" y="-5.465" rx="0" ry="0" width="750" height="10.93" />
</g>
<g transform="matrix(1 0 0 1 742.82 659.31)"  >
<path style="stroke: none; stroke-width: 1; stroke-dasharray: none; stroke-linecap: butt; stroke-dashoffset: 0; stroke-linejoin: miter; stroke-miterlimit: 4; fill: rgb(0,0,0); fill-rule: nonzero; opacity: 1;" vector-effect="non-scaling-stroke"  transform=" translate(-487.73, -250.24)" d="M 437.767 312.931 C 450.183 317.169 464.724 320.39099999999996 479.725 322.015 C 508.127 325.155 538.1990000000001 322.638 558.649 310.751 C 559.84 299.99899999999997 557.408 287.642 557.408 287.642 C 561.963 291.749 564.467 299.252 565.8480000000001 305.837 C 574.8810000000001 298.615 581.094 288.859 583.057 276.09999999999997 C 589.82 232.03799999999995 535.096 243.16799999999995 529.279 177.21799999999996 C 529.279 177.21799999999996 458.71299999999997 202.07999999999996 421.946 226.45899999999995 C 414.42 231.45099999999994 408.303 236.43599999999995 404.51500000000004 241.16099999999994 C 382.159 269.06 387.052 295.636 437.767 312.931 z" stroke-linecap="round" />
</g>
<g transform="matrix(1 0 0 1 712.21 614.17)"  >
<path style="stroke: none; stroke-width: 1; stroke-dasharray: none; stroke-linecap: butt; stroke-dashoffset: 0; stroke-linejoin: miter; stroke-miterlimit: 4; fill: rgb(0,0,0); fill-rule: nonzero; opacity: 1;" vector-effect="non-scaling-stroke"  transform=" translate(-459.52, -205.09)" d="M 410.483 196.527 C 359.214 211.68099999999998 403.996 98.88499999999999 481.538 126.15699999999998 C 577.178 159.79399999999998 508.944 280.344 475.391 287.054 C 441.838 293.76399999999995 453.357 271.179 453.357 271.179 L 410.483 196.527 z" stroke-linecap="round" />
</g>
<g transform="matrix(1 0 0 1 724.99 674.14)"  >
<path style="stroke: none; stroke-width: 1; stroke-dasharray: none; stroke-linecap: butt; stroke-dashoffset: 0; stroke-linejoin: miter; stroke-miterlimit: 4; fill: rgb(85,54,63); fill-opacity: 0.33; fill-rule: nonzero; opacity: 0.5;" vector-effect="non-scaling-stroke"  transform=" translate(-469.9, -265.07)" d="M 437.767 312.931 C 450.183 317.169 464.724 320.39099999999996 479.725 322.015 C 499.79600000000005 320.94399999999996 519.3910000000001 319.046 530.86 315.84999999999997 C 561.399 307.25899999999996 552.739 247.95699999999997 491.422 208.11799999999997 L 421.94500000000005 226.45999999999998 C 414.41900000000004 231.45199999999997 408.302 236.43699999999998 404.51400000000007 241.16199999999998 C 382.159 269.06 387.052 295.636 437.767 312.931 z" stroke-linecap="round" />
</g>
<g transform="matrix(1 0 0 1 707.06 677.68)"  >
<polygon style="stroke: none; stroke-width: 1; stroke-dasharray: none; stroke-linecap: butt; stroke-dashoffset: 0; stroke-linejoin: miter; stroke-miterlimit: 4; fill: rgb(227,181,170); fill-rule: nonzero; opacity: 1;" vector-effect="non-scaling-stroke"  points="-29.91,24.7 -16.23,32.43 21.21,30.31 29.91,-32.43 -23.7,-21.21 -25.11,-10.71 " />
</g>
<g transform="matrix(1 0 0 1 698.08 680.7)"  >
<path style="stroke: none; stroke-width: 1; stroke-dasharray: none; stroke-linecap: butt; stroke-dashoffset: 0; stroke-linejoin: miter; stroke-miterlimit: 4; fill: rgb(200,126,132); fill-rule: nonzero; opacity: 1;" vector-effect="non-scaling-stroke"  transform=" translate(-445.39, -271.63)" d="M 425.157 288.163 C 458.604 291.534 465.62199999999996 254.877 465.62199999999996 254.877 L 427.996 267.181 L 425.157 288.163 z" stroke-linecap="round" />
</g>
<g transform="matrix(1 0 0 1 692.81 631.5)"  >
<path style="stroke: none; stroke-width: 1; stroke-dasharray: none; stroke-linecap: butt; stroke-dashoffset: 0; stroke-linejoin: miter; stroke-miterlimit: 4; fill: rgb(227,181,170); fill-rule: nonzero; opacity: 1;" vector-effect="non-scaling-stroke"  transform=" translate(-440.11, -222.43)" d="M 474.36 245.24 C 467.52000000000004 260.373 444.74600000000004 277.992 425.659 274.95 C 409.53 272.37 395.782 258.806 398.364 226.427 C 398.36899999999997 226.275 398.39599999999996 226.107 398.40299999999996 225.95399999999998 C 398.86999999999995 215.78699999999998 400.614 204.68099999999998 402.15399999999994 191.39799999999997 C 402.59399999999994 187.60699999999997 408.12799999999993 186.85599999999997 407.65399999999994 185.13099999999997 C 409.31699999999995 180.18499999999997 411.21899999999994 174.99999999999997 413.3829999999999 169.55899999999997 L 481.8359999999999 186.73699999999997 C 481.838 186.737 484.608 222.566 474.36 245.24 z" stroke-linecap="round" />
</g>
<g transform="matrix(1 0 0 1 655.25 614.88)"  >
<path style="stroke: rgb(200,126,132); stroke-width: 0.5; stroke-dasharray: none; stroke-linecap: butt; stroke-dashoffset: 0; stroke-linejoin: miter; stroke-miterlimit: 10; fill: none; fill-rule: nonzero; opacity: 1;" vector-effect="non-scaling-stroke"  transform=" translate(-402.55, -205.8)" d="M 399.472 213.021 C 407.394 206.821 405.411 198.57999999999998 405.411 198.57999999999998" stroke-linecap="round" />
</g>
<g transform="matrix(1 0 0 1 665.94 663.67)"  >
<linearGradient id="SVGID_10" gradientUnits="userSpaceOnUse" gradientTransform="matrix(1 -0.05 0.05 1 6205.49 -51.85)"  x1="-5805.3066" y1="21.0956" x2="-5795.167" y2="21.0956">
<stop offset="0%" style="stop-color:rgb(215,143,151);stop-opacity: 1"/>
<stop offset="100%" style="stop-color:rgb(209,144,151);stop-opacity: 0"/>
</linearGradient>
<path style="stroke: none; stroke-width: 1; stroke-dasharray: none; stroke-linecap: butt; stroke-dashoffset: 0; stroke-linejoin: miter; stroke-miterlimit: 4; fill: url(#SVGID_10); fill-rule: nonzero; opacity: 1;" vector-effect="non-scaling-stroke"  transform=" translate(-413.25, -254.6)" d="M 418.311 254.347 C 418.37 255.554 416.152 256.645 413.35499999999996 256.783 C 410.55899999999997 256.921 408.24299999999994 256.053 408.18399999999997 254.846 C 408.12499999999994 253.638 410.34299999999996 252.548 413.14 252.41 C 415.936 252.272 418.251 253.139 418.311 254.347 z" stroke-linecap="round" />
</g>
<g transform="matrix(1 0 0 1 735.66 616.82)"  >
<path style="stroke: none; stroke-width: 1; stroke-dasharray: none; stroke-linecap: butt; stroke-dashoffset: 0; stroke-linejoin: miter; stroke-miterlimit: 4; fill: rgb(0,0,0); fill-rule: nonzero; opacity: 1;" vector-effect="non-scaling-stroke"  transform=" translate(-482.97, -207.74)" d="M 466.323 184.389 C 449.56 229.95800000000003 475.94 237.65300000000002 475.94 237.65300000000002 L 491.426 208.11400000000003 L 505.18399999999997 178.69300000000004 L 471.676 177.83300000000003 L 466.323 184.389 z" stroke-linecap="round" />
</g>
<g transform="matrix(1 0 0 1 713.36 605.93)"  >
<path style="stroke: none; stroke-width: 1; stroke-dasharray: none; stroke-linecap: butt; stroke-dashoffset: 0; stroke-linejoin: miter; stroke-miterlimit: 4; fill: rgb(2,2,2); fill-rule: nonzero; opacity: 1;" vector-effect="non-scaling-stroke"  transform=" translate(-460.66, -196.85)" d="M 461.492 176.333 C 453.338 194.651 449.28000000000003 211.035 455.048 216.767 C 460.817 222.5 467.925 194.44299999999998 468.903 184.393 C 469.882 174.343 461.492 176.333 461.492 176.333 z" stroke-linecap="round" />
</g>
<g transform="matrix(1 0 0 1 737.19 633.92)"  >
<path style="stroke: none; stroke-width: 1; stroke-dasharray: none; stroke-linecap: butt; stroke-dashoffset: 0; stroke-linejoin: miter; stroke-miterlimit: 4; fill: rgb(227,181,170); fill-rule: nonzero; opacity: 1;" vector-effect="non-scaling-stroke"  transform=" translate(-484.49, -224.85)" d="M 474.243 217.532 C 481.757 204.747 492.097 203.673 497.177 218.07600000000002 C 502.257 232.479 488.586 245.247 476.72400000000005 241.40300000000002 C 464.862 237.56 474.243 217.532 474.243 217.532 z" stroke-linecap="round" />
</g>
<g transform="matrix(1 0 0 1 737.41 634.61)"  >
<path style="stroke: none; stroke-width: 1; stroke-dasharray: none; stroke-linecap: butt; stroke-dashoffset: 0; stroke-linejoin: miter; stroke-miterlimit: 4; fill: rgb(215,143,151); fill-rule: nonzero; opacity: 1;" vector-effect="non-scaling-stroke"  transform=" translate(-484.72, -225.54)" d="M 483.628 217.547 C 488.993 216.101 493.12399999999997 232.099 481.223 233.621 L 483.213 227.756 L 480.51800000000003 223.235 L 483.628 217.547 z" stroke-linecap="round" />
</g>
<g transform="matrix(1 0 0 1 737.21 634.67)"  >
<path style="stroke: rgb(200,126,132); stroke-width: 0.5; stroke-dasharray: none; stroke-linecap: butt; stroke-dashoffset: 0; stroke-linejoin: miter; stroke-miterlimit: 10; fill: none; fill-rule: nonzero; opacity: 1;" vector-effect="non-scaling-stroke"  transform=" translate(-484.52, -225.59)" d="M 479.299 235.675 C 485.895 227.88000000000002 480.59299999999996 222.95000000000002 480.59299999999996 222.95000000000002 C 480.59299999999996 222.95000000000002 486.53499999999997 208.98800000000003 489.73299999999995 219.29100000000003" stroke-linecap="round" />
</g>
<g transform="matrix(1 0 0 1 694.31 599.53)"  >
<path style="stroke: none; stroke-width: 1; stroke-dasharray: none; stroke-linecap: butt; stroke-dashoffset: 0; stroke-linejoin: miter; stroke-miterlimit: 4; fill: rgb(184,61,93); fill-rule: nonzero; opacity: 1;" vector-effect="non-scaling-stroke"  transform=" translate(-441.62, -190.46)" d="M 433.794 189.486 C 448.411 198.243 459.09999999999997 198.53 447.05899999999997 189.915 C 435.017 181.3 426.219 184.948 433.794 189.486" stroke-linecap="round" />
</g>
<g transform="matrix(1 0 0 1 678.09 619.97)"  >
<path style="stroke: none; stroke-width: 1; stroke-dasharray: none; stroke-linecap: butt; stroke-dashoffset: 0; stroke-linejoin: miter; stroke-miterlimit: 4; fill: rgb(35,63,78); fill-rule: nonzero; opacity: 1;" vector-effect="non-scaling-stroke"  transform=" translate(-425.4, -210.9)" d="M 424.907 217.126 L 424.907 217.126 C 422.601 216.94400000000002 420.863 214.90800000000002 421.046 212.602 L 421.36899999999997 208.52700000000002 C 421.55199999999996 206.221 423.587 204.484 425.893 204.66600000000003 L 425.893 204.66600000000003 C 428.19899999999996 204.848 429.93699999999995 206.88400000000001 429.75399999999996 209.19100000000003 L 429.43199999999996 213.26600000000002 C 429.249 215.57 427.213 217.308 424.907 217.126 z" stroke-linecap="round" />
</g>
<g transform="matrix(1 0 0 1 674.05 595.98)"  >
<path style="stroke: none; stroke-width: 1; stroke-dasharray: none; stroke-linecap: butt; stroke-dashoffset: 0; stroke-linejoin: miter; stroke-miterlimit: 4; fill: rgb(10,10,10); fill-rule: nonzero; opacity: 1;" vector-effect="non-scaling-stroke"  transform=" translate(-436.36, -175.56)" d="M 401.367 197.926 C 414.625 198.791 439.12600000000003 175.73399999999998 439.12600000000003 175.73399999999998 C 439.12600000000003 175.73399999999998 441.901 196.515 466.32300000000004 184.38899999999998 C 498.88800000000003 168.22099999999998 460.39000000000004 161.49899999999997 460.39000000000004 161.49899999999997 L 412.56500000000005 153.17699999999996 L 393.31 176.64 L 401.367 197.926 z" stroke-linecap="round" />
</g>
<g transform="matrix(1 0 0 1 648.77 637.34)"  >
<path style="stroke: none; stroke-width: 1; stroke-dasharray: none; stroke-linecap: butt; stroke-dashoffset: 0; stroke-linejoin: miter; stroke-miterlimit: 4; fill: rgb(200,126,132); fill-rule: nonzero; opacity: 1;" vector-effect="non-scaling-stroke"  transform=" translate(-396.07, -228.26)" d="M 398.012 231.703 C 397.906 231.693 397.844 231.681 397.844 231.681 C 392.493 230.729 387.13 228.92600000000002 387.772 225.596 C 395.657 223.065 402.08299999999997 226.411 404.10699999999997 229.534 C 405.965 232.39 399.203 231.811 398.012 231.703 z" stroke-linecap="round" />
</g>
<g transform="matrix(1 0 0 1 665.69 655.79)"  >
<path style="stroke: rgb(35,63,78); stroke-width: 0.75; stroke-dasharray: none; stroke-linecap: butt; stroke-dashoffset: 0; stroke-linejoin: miter; stroke-miterlimit: 10; fill: none; fill-rule: nonzero; opacity: 1;" vector-effect="non-scaling-stroke"  transform=" translate(-413, -246.71)" d="M 404.908 245.702 C 404.908 245.702 411.286 252.544 421.096 244.905" stroke-linecap="round" />
</g>
<g transform="matrix(1 0 0 1 771.2 546.06)"  >
<path style="stroke: none; stroke-width: 1; stroke-dasharray: none; stroke-linecap: butt; stroke-dashoffset: 0; stroke-linejoin: miter; stroke-miterlimit: 4; fill: rgb(0,0,0); fill-rule: nonzero; opacity: 1;" vector-effect="non-scaling-stroke"  transform=" translate(-518.51, -136.98)" d="M 495.976 149.07 C 512.949 128.148 533.897 110.88 539.673 119.59199999999998 C 545.449 128.30399999999997 506.48900000000003 148.552 506.48900000000003 148.552 C 506.48900000000003 148.552 537.474 130.01399999999998 540.849 143.45999999999998 C 544.224 156.90599999999998 504.1 156.68599999999998 504.1 156.68599999999998 L 495.976 149.07 z" stroke-linecap="round" />
</g>
<g transform="matrix(1 0 0 1 649.81 627.94)"  >
<path style="stroke: none; stroke-width: 1; stroke-dasharray: none; stroke-linecap: butt; stroke-dashoffset: 0; stroke-linejoin: miter; stroke-miterlimit: 4; fill: rgb(227,181,170); fill-rule: nonzero; opacity: 1;" vector-effect="non-scaling-stroke"  transform=" translate(-397.12, -218.87)" d="M 387.772 225.595 C 388.03 219.771 406.466 208.201 406.466 208.201 L 404.107 229.53199999999998 L 387.772 225.595 z" stroke-linecap="round" />
</g>
<g transform="matrix(1 0 0 1 475.39 888.75)"  >
<path style="stroke: none; stroke-width: 1; stroke-dasharray: none; stroke-linecap: butt; stroke-dashoffset: 0; stroke-linejoin: miter; stroke-miterlimit: 4; fill: rgb(255,255,255); fill-rule: nonzero; opacity: 1;" vector-effect="non-scaling-stroke"  transform=" translate(-222.7, -479.67)" d="M 280.491 498.204 L 172.163 498.204 C 168.156 498.204 164.907 494.955 164.907 490.948 L 164.907 468.402 C 164.907 464.395 168.156 461.14599999999996 172.163 461.14599999999996 L 280.491 461.14599999999996 L 280.491 498.204 z" stroke-linecap="round" />
</g>
<g transform="matrix(1 0 0 1 476.29 882.8)"  >
<rect style="stroke: none; stroke-width: 1; stroke-dasharray: none; stroke-linecap: butt; stroke-dashoffset: 0; stroke-linejoin: miter; stroke-miterlimit: 4; fill: rgb(163,213,230); fill-rule: nonzero; opacity: 0.4;" vector-effect="non-scaling-stroke"  x="-56.895" y="-1.02" rx="0" ry="0" width="113.79" height="2.04" />
</g>
<g transform="matrix(1 0 0 1 476.29 888.78)"  >
<rect style="stroke: none; stroke-width: 1; stroke-dasharray: none; stroke-linecap: butt; stroke-dashoffset: 0; stroke-linejoin: miter; stroke-miterlimit: 4; fill: rgb(163,213,230); fill-rule: nonzero; opacity: 0.4;" vector-effect="non-scaling-stroke"  x="-56.895" y="-1.02" rx="0" ry="0" width="113.79" height="2.04" />
</g>
<g transform="matrix(1 0 0 1 476.29 900.75)"  >
<rect style="stroke: none; stroke-width: 1; stroke-dasharray: none; stroke-linecap: butt; stroke-dashoffset: 0; stroke-linejoin: miter; stroke-miterlimit: 4; fill: rgb(163,213,230); fill-rule: nonzero; opacity: 0.4;" vector-effect="non-scaling-stroke"  x="-56.895" y="-1.02" rx="0" ry="0" width="113.79" height="2.04" />
</g>
<g transform="matrix(1 0 0 1 476.29 876.81)"  >
<rect style="stroke: none; stroke-width: 1; stroke-dasharray: none; stroke-linecap: butt; stroke-dashoffset: 0; stroke-linejoin: miter; stroke-miterlimit: 4; fill: rgb(163,213,230); fill-rule: nonzero; opacity: 0.4;" vector-effect="non-scaling-stroke"  x="-56.895" y="-1.02" rx="0" ry="0" width="113.79" height="2.04" />
</g>
<g transform="matrix(1 0 0 1 476.29 894.77)"  >
<rect style="stroke: none; stroke-width: 1; stroke-dasharray: none; stroke-linecap: butt; stroke-dashoffset: 0; stroke-linejoin: miter; stroke-miterlimit: 4; fill: rgb(163,213,230); fill-rule: nonzero; opacity: 0.4;" vector-effect="non-scaling-stroke"  x="-56.895" y="-1.02" rx="0" ry="0" width="113.79" height="2.04" />
</g>
<g transform="matrix(1 0 0 1 474.49 888.75)"  >
<path style="stroke: none; stroke-width: 1; stroke-dasharray: none; stroke-linecap: butt; stroke-dashoffset: 0; stroke-linejoin: miter; stroke-miterlimit: 4; fill: rgb(0,104,144); fill-rule: nonzero; opacity: 1;" vector-effect="non-scaling-stroke"  transform=" translate(-221.8, -479.68)" d="M 280.491 500 L 173.593 500 C 167.814 500 163.113 495.298 163.113 489.519 L 163.113 469.832 C 163.113 464.053 167.814 459.352 173.593 459.352 L 280.49199999999996 459.352 L 280.49199999999996 462.943 L 173.593 462.943 C 169.79399999999998 462.943 166.703 466.034 166.703 469.83299999999997 L 166.703 489.52 C 166.703 493.31899999999996 169.794 496.40999999999997 173.593 496.40999999999997 L 280.49199999999996 496.40999999999997 L 280.49199999999996 500 z" stroke-linecap="round" />
</g>
<g transform="matrix(1 0 0 1 533.19 907.28)"  >
<path style="stroke: rgb(195,62,93); stroke-width: 3; stroke-dasharray: none; stroke-linecap: butt; stroke-dashoffset: 0; stroke-linejoin: miter; stroke-miterlimit: 10; fill: none; fill-rule: nonzero; opacity: 1;" vector-effect="non-scaling-stroke"  transform=" translate(-280.49, -498.2)" d="M 280.491 498.204" stroke-linecap="round" />
</g>
<g transform="matrix(1 0 0 1 533.19 870.22)"  >
<path style="stroke: rgb(195,62,93); stroke-width: 3; stroke-dasharray: none; stroke-linecap: butt; stroke-dashoffset: 0; stroke-linejoin: miter; stroke-miterlimit: 10; fill: none; fill-rule: nonzero; opacity: 1;" vector-effect="non-scaling-stroke"  transform=" translate(-280.49, -461.15)" d="M 280.491 461.146" stroke-linecap="round" />
</g>
<g transform="matrix(1 0 0 1 517.8 891.66)"  >
<polygon style="stroke: none; stroke-width: 1; stroke-dasharray: none; stroke-linecap: butt; stroke-dashoffset: 0; stroke-linejoin: miter; stroke-miterlimit: 4; fill: rgb(195,62,93); fill-rule: nonzero; opacity: 1;" vector-effect="non-scaling-stroke"  points="7.2,9.89 0,2.7 -7.2,9.89 -7.2,-9.89 7.2,-9.89 " />
</g>
<g transform="matrix(1 0 0 1 686.51 728.05)"  >
<path style="stroke: none; stroke-width: 1; stroke-dasharray: none; stroke-linecap: butt; stroke-dashoffset: 0; stroke-linejoin: miter; stroke-miterlimit: 4; fill: rgb(227,181,170); fill-rule: nonzero; opacity: 1;" vector-effect="non-scaling-stroke"  transform=" translate(-433.81, -318.97)" d="M 416.545 291.825 C 445.13100000000003 286.496 482.62300000000005 296.19599999999997 482.62300000000005 296.19599999999997 L 482.62300000000005 347.71999999999997 L 385 346.004 L 416.545 291.825 z" stroke-linecap="round" />
</g>
<g transform="matrix(1 0 0 1 706.21 804.83)"  >
<path style="stroke: none; stroke-width: 1; stroke-dasharray: none; stroke-linecap: butt; stroke-dashoffset: 0; stroke-linejoin: miter; stroke-miterlimit: 4; fill: rgb(109,105,105); fill-rule: nonzero; opacity: 1;" vector-effect="non-scaling-stroke"  transform=" translate(-453.52, -395.76)" d="M 611.723 399.041 L 561.39 433.615 L 529.886 406.921 C 528.5699999999999 434.493 506.554 499.693 506.554 499.693 L 340.394 499.693 C 357.045 419.94599999999997 357.455 403.88 357.455 403.88 L 339.327 422.366 L 295.324 370.037 C 295.324 370.037 336.023 322.452 365.334 308.88599999999997 C 378.359 302.86299999999994 389.909 298.81399999999996 398.738 296.19699999999995 C 409.775 292.90799999999996 416.544 291.82599999999996 416.544 291.82599999999996 C 416.544 291.82599999999996 413.036 320.71299999999997 438.414 325.08399999999995 C 463.807 329.4549999999999 482.62199999999996 296.19699999999995 482.62199999999996 296.19699999999995 C 482.62199999999996 296.19699999999995 490.01899999999995 297.99499999999995 500.03299999999996 300.81699999999995 C 517.971 305.88999999999993 544.3 314.28099999999995 551.332 321.57599999999996 C 562.267 332.962 611.723 399.041 611.723 399.041 z" stroke-linecap="round" />
</g>
<g transform="matrix(1 0 0 1 701.82 884.79)"  >
<path style="stroke: none; stroke-width: 1; stroke-dasharray: none; stroke-linecap: butt; stroke-dashoffset: 0; stroke-linejoin: miter; stroke-miterlimit: 4; fill: rgb(227,181,170); fill-rule: nonzero; opacity: 1;" vector-effect="non-scaling-stroke"  transform=" translate(-449.13, -475.71)" d="M 479.231 463.028 L 479.158 465.747 L 478.149 499.692 C 478.149 499.692 460.036 499.809 444.496 498.37600000000003 C 434.892 497.499 426.26599999999996 496.02200000000005 423.518 493.56600000000003 C 416.32599999999996 487.134 423.255 481.593 423.255 481.593 C 413.402 473.421 423.89799999999997 467.16400000000004 423.89799999999997 467.16400000000004 C 423.89799999999997 467.16400000000004 419.05899999999997 456.53600000000006 427.31899999999996 453.071 C 431.63199999999995 451.273 438.80999999999995 451.273 448.22399999999993 453.129 C 449.7149999999999 453.421 451.24999999999994 453.772 452.85799999999995 454.15200000000004 C 452.88699999999994 454.16700000000003 452.90199999999993 454.16700000000003 452.917 454.16700000000003 C 458.13599999999997 455.439 463.92499999999995 457.22200000000004 470.18199999999996 459.50300000000004 C 473.091 460.572 476.118 461.742 479.231 463.028 z" stroke-linecap="round" />
</g>
<g transform="matrix(1 0 0 1 718.76 875.04)"  >
<path style="stroke: none; stroke-width: 1; stroke-dasharray: none; stroke-linecap: butt; stroke-dashoffset: 0; stroke-linejoin: miter; stroke-miterlimit: 4; fill: rgb(200,126,132); fill-rule: nonzero; opacity: 0.4;" vector-effect="non-scaling-stroke"  transform=" translate(-466.07, -465.97)" d="M 479.231 463.028 L 479.158 465.747 L 475.72200000000004 477.778 C 475.72200000000004 477.778 467.84200000000004 459.124 452.91600000000005 454.168 C 458.13500000000005 455.44 463.92400000000004 457.223 470.18100000000004 459.504 C 473.091 460.572 476.118 461.742 479.231 463.028 z" stroke-linecap="round" />
</g>
<g transform="matrix(1 0 0 1 752.73 858.44)"  >
<path style="stroke: none; stroke-width: 1; stroke-dasharray: none; stroke-linecap: butt; stroke-dashoffset: 0; stroke-linejoin: miter; stroke-miterlimit: 4; fill: rgb(108,171,189); fill-rule: nonzero; opacity: 0.4;" vector-effect="non-scaling-stroke"  transform=" translate(-500.03, -449.37)" d="M 529.886 406.92 C 528.5699999999999 434.492 506.554 499.692 506.554 499.692 L 470.18199999999996 499.692 C 490.12199999999996 478.597 520.048 399.04 520.048 399.04 L 529.886 406.92 z" stroke-linecap="round" />
</g>
<g transform="matrix(1 0 0 1 731.92 885.95)"  >
<path style="stroke: none; stroke-width: 1; stroke-dasharray: none; stroke-linecap: butt; stroke-dashoffset: 0; stroke-linejoin: miter; stroke-miterlimit: 4; fill: rgb(0,104,144); fill-rule: nonzero; opacity: 1;" vector-effect="non-scaling-stroke"  transform=" translate(-479.23, -476.88)" d="M 486.229 454.432 C 466.929 449.319 466.245 499.692 466.245 499.692 L 492.214 499.692 L 486.229 454.432 z" stroke-linecap="round" />
</g>
<g transform="matrix(1 0 0 1 629.82 884.87)"  >
<path style="stroke: none; stroke-width: 1; stroke-dasharray: none; stroke-linecap: butt; stroke-dashoffset: 0; stroke-linejoin: miter; stroke-miterlimit: 4; fill: rgb(195,62,93); fill-rule: nonzero; opacity: 1;" vector-effect="non-scaling-stroke"  transform=" translate(-377.12, -475.8)" d="M 366.602 451.921 C 384.60799999999995 451.087 389.80199999999996 473.634 386.881 499.693 L 368.916 499.693 L 366.602 451.921 z" stroke-linecap="round" />
</g>
<g transform="matrix(1 0 0 1 702.09 724.51)"  >
<path style="stroke: none; stroke-width: 1; stroke-dasharray: none; stroke-linecap: butt; stroke-dashoffset: 0; stroke-linejoin: miter; stroke-miterlimit: 4; fill: rgb(94,82,82); fill-rule: nonzero; opacity: 1;" vector-effect="non-scaling-stroke"  transform=" translate(-449.39, -315.44)" d="M 500.049 300.83 C 452.654 370.344 401.663 330.30199999999996 398.739 296.19599999999997 C 409.77599999999995 292.907 416.54499999999996 291.825 416.54499999999996 291.825 C 416.54499999999996 291.825 413.037 320.712 438.41499999999996 325.08299999999997 C 463.808 329.45399999999995 482.62299999999993 296.19599999999997 482.62299999999993 296.19599999999997 C 482.62299999999993 296.19599999999997 490.0199999999999 297.99399999999997 500.03399999999993 300.816 L 500.049 300.83 z" stroke-linecap="round" />
</g>
<g transform="matrix(1.13 0 0 1.13 801.72 857.19)"  >
<path style="stroke: none; stroke-width: 1; stroke-dasharray: none; stroke-linecap: butt; stroke-dashoffset: 0; stroke-linejoin: miter; stroke-miterlimit: 4; fill: rgb(107,103,103); fill-rule: nonzero; opacity: 1;" vector-effect="non-scaling-stroke"  transform=" translate(-558.48, -449.37)" d="M 616.095 499.693 L 483.412 499.693 C 483.412 499.693 478.67499999999995 463.99399999999997 489.844 446.86 C 501.028 429.72700000000003 557.545 446.86 557.545 446.86 C 557.545 446.86 544.5039999999999 437.547 561.39 433.615 L 611.723 399.041 C 614.2379999999999 402.316 616.5029999999999 405.517 618.536 408.65999999999997 C 629.968 426.26099999999997 634.193 441.611 634.529 454.43199999999996 L 634.529 454.491 C 635.304 483.597 616.095 499.693 616.095 499.693 z" stroke-linecap="round" />
</g>
<g transform="matrix(1 0 0 1 784.82 752.87)"  >
<path style="stroke: rgb(108,171,189); stroke-width: 1; stroke-dasharray: none; stroke-linecap: butt; stroke-dashoffset: 0; stroke-linejoin: miter; stroke-miterlimit: 10; fill: none; fill-rule: nonzero; opacity: 1;" vector-effect="non-scaling-stroke"  transform=" translate(-532.12, -343.8)" d="M 520.041 370.949 C 520.041 370.949 527.537 330.678 544.201 316.65700000000004" stroke-linecap="round" />
</g>
<g transform="matrix(1 0 0 1 603.56 784.88)"  >
<path style="stroke: rgb(108,171,189); stroke-width: 1; stroke-dasharray: none; stroke-linecap: butt; stroke-dashoffset: 0; stroke-linejoin: miter; stroke-miterlimit: 10; fill: none; fill-rule: nonzero; opacity: 1;" vector-effect="non-scaling-stroke"  transform=" translate(-350.86, -375.8)" d="M 356.06 347.72 C 356.06 347.72 360.474 381.3 357.455 403.879 L 343.211 375.79900000000004" stroke-linecap="round" />
</g>
<g transform="matrix(1 0 0 1 822.88 869.81)"  >
<polyline style="stroke: rgb(108,171,189); stroke-width: 1; stroke-dasharray: none; stroke-linecap: butt; stroke-dashoffset: 0; stroke-linejoin: miter; stroke-miterlimit: 10; fill: none; fill-rule: nonzero; opacity: 1;" vector-effect="non-scaling-stroke"  points="-0.96,5.06 -14.4,-5.06 14.4,-5.06 " />
</g>
<g transform="matrix(1 0 0 1 565.82 843.94)"  >
<path style="stroke: none; stroke-width: 1; stroke-dasharray: none; stroke-linecap: butt; stroke-dashoffset: 0; stroke-linejoin: miter; stroke-miterlimit: 4; fill: rgb(255,255,255); fill-rule: nonzero; opacity: 1;" vector-effect="non-scaling-stroke"  transform=" translate(-313.13, -434.87)" d="M 368.916 499.693 C 312.45 499.693 304.402 498.012 285.573 490.702 C 269.405 484.445 259.63899999999995 474.022 255.80899999999997 456.976 C 253.45499999999996 446.465 255.63299999999998 434.901 259.97499999999997 423.718 C 266.393 407.184 277.503 391.49800000000005 285.573 381.411 L 285.573 381.396 C 291.202 374.35 295.32399999999996 370.03700000000003 295.32399999999996 370.03700000000003 L 339.32699999999994 422.37300000000005 C 347.38199999999995 431.94800000000004 329.3569999999999 435.85200000000003 329.3569999999999 435.85200000000003 C 386.313 427.855 368.916 499.693 368.916 499.693 z" stroke-linecap="round" />
</g>
<g transform="matrix(1 0 0 1 569.83 843.91)"  >
<polyline style="stroke: rgb(108,171,189); stroke-width: 1; stroke-dasharray: none; stroke-linecap: butt; stroke-dashoffset: 0; stroke-linejoin: miter; stroke-miterlimit: 10; fill: none; fill-rule: nonzero; opacity: 1;" vector-effect="non-scaling-stroke"  points="-12.22,5.35 12.22,1.01 -7.46,-5.35 " />
</g>
<g transform="matrix(1 0 0 1 565.14 805.28)"  >
<path style="stroke: none; stroke-width: 1; stroke-dasharray: none; stroke-linecap: butt; stroke-dashoffset: 0; stroke-linejoin: miter; stroke-miterlimit: 4; fill: rgb(163,213,230); fill-rule: nonzero; opacity: 0.4;" vector-effect="non-scaling-stroke"  transform=" translate(-312.45, -396.2)" d="M 339.327 422.373 L 285.573 381.40999999999997 L 285.573 381.395 C 291.202 374.349 295.32399999999996 370.036 295.32399999999996 370.036 L 339.327 422.373 z" stroke-linecap="round" />
</g>
<g transform="matrix(1 0 0 1 524.37 866.28)"  >
<path style="stroke: none; stroke-width: 1; stroke-dasharray: none; stroke-linecap: butt; stroke-dashoffset: 0; stroke-linejoin: miter; stroke-miterlimit: 4; fill: rgb(163,213,230); fill-rule: nonzero; opacity: 0.4;" vector-effect="non-scaling-stroke"  transform=" translate(-271.68, -457.21)" d="M 285.573 490.702 C 269.405 484.445 259.63899999999995 474.022 255.80899999999997 456.976 C 253.45499999999996 446.465 255.63299999999998 434.901 259.97499999999997 423.718 C 272.06499999999994 424.93100000000004 261.335 443.863 276.027 458 C 290.704 472.107 290.324 481.872 285.573 490.702 z" stroke-linecap="round" />
</g>
<g transform="matrix(1 0 0 1 867.35 886.14)"  >
<path style="stroke: none; stroke-width: 1; stroke-dasharray: none; stroke-linecap: butt; stroke-dashoffset: 0; stroke-linejoin: miter; stroke-miterlimit: 4; fill: rgb(163,213,230); fill-rule: nonzero; opacity: 0.4;" vector-effect="non-scaling-stroke"  transform=" translate(-614.65, -477.06)" d="M 616.095 499.693 L 594.751 499.693 C 615.817 484.18199999999996 612.8059999999999 454.769 634.529 454.433 L 634.529 454.492 C 635.304 483.597 616.095 499.693 616.095 499.693 z" stroke-linecap="round" />
</g>
<g transform="matrix(1 0 0 1 579.66 842.01)"  >
<path style="stroke: none; stroke-width: 1; stroke-dasharray: none; stroke-linecap: butt; stroke-dashoffset: 0; stroke-linejoin: miter; stroke-miterlimit: 4; fill: rgb(84,179,205); fill-rule: nonzero; opacity: 1;" vector-effect="non-scaling-stroke"  transform=" translate(-326.96, -432.93)" d="M 470.584 489.766 C 476.963 489.766 477.627 499.382 471.273 499.957 C 470.96700000000004 499.985 470.656 499.99899999999997 470.343 499.99899999999997 L 227.082 499.99899999999997 C 221.439 499.99899999999997 216.863 495.409 216.863 489.76599999999996 L 216.834 489.664 L 178.94 382.631 C 176.045 374.453 182.111 365.86999999999995 190.786 365.86999999999995 L 348.733 365.86999999999995 C 354.057 365.86999999999995 358.803 369.22399999999993 360.579 374.24299999999994 L 401.442 489.66499999999996 L 401.471 489.76699999999994 L 470.584 489.76699999999994 z" stroke-linecap="round" />
</g>
<g transform="matrix(1 0 0 1 561.83 898.74)"  >
<line style="stroke: rgb(255,255,255); stroke-width: 1; stroke-dasharray: none; stroke-linecap: butt; stroke-dashoffset: 0; stroke-linejoin: miter; stroke-miterlimit: 10; fill: none; fill-rule: nonzero; opacity: 1;" vector-effect="non-scaling-stroke"  x1="92.30449999999999" y1="0" x2="-92.30449999999999" y2="0" />
</g>
<g transform="matrix(1 0 0 1 680.51 876)"  >
<path style="stroke: rgb(200,126,132); stroke-width: 0.5; stroke-dasharray: none; stroke-linecap: butt; stroke-dashoffset: 0; stroke-linejoin: miter; stroke-miterlimit: 10; fill: none; fill-rule: nonzero; opacity: 1;" vector-effect="non-scaling-stroke"  transform=" translate(-427.82, -466.92)" d="M 431.734 466.968 C 431.734 466.968 429.81 466.189 423.902 467.172" stroke-linecap="round" />
</g>
<g transform="matrix(1 0 0 1 679.17 890.67)"  >
<path style="stroke: rgb(200,126,132); stroke-width: 0.5; stroke-dasharray: none; stroke-linecap: butt; stroke-dashoffset: 0; stroke-linejoin: miter; stroke-miterlimit: 10; fill: none; fill-rule: nonzero; opacity: 1;" vector-effect="non-scaling-stroke"  transform=" translate(-426.48, -481.6)" d="M 429.698 481.595 C 429.698 481.595 426.998 481.595 423.25899999999996 481.595" stroke-linecap="round" />
</g>
<g transform="matrix(1 0 0 1 533.19 838.56)"  >
<path style="stroke: none; stroke-width: 1; stroke-dasharray: none; stroke-linecap: butt; stroke-dashoffset: 0; stroke-linejoin: miter; stroke-miterlimit: 4; fill: rgb(255,255,255); fill-rule: nonzero; opacity: 1;" vector-effect="non-scaling-stroke"  transform=" translate(-280.49, -429.48)" d="M 292.864 425.228 C 295.717 433.52500000000003 292.491 442.15500000000003 285.657 444.505 C 278.82399999999996 446.855 270.971 442.034 268.118 433.738 C 265.265 425.441 268.491 416.811 275.325 414.461 C 282.158 412.111 290.011 416.932 292.864 425.228 z" stroke-linecap="round" />
</g>
<g transform="matrix(1 0 0 1 651.37 599.96)"  >
<line style="stroke: none; stroke-width: 1; stroke-dasharray: none; stroke-linecap: butt; stroke-dashoffset: 0; stroke-linejoin: miter; stroke-miterlimit: 4; fill: rgb(200,126,132); fill-rule: nonzero; opacity: 1;" vector-effect="non-scaling-stroke"  x1="-6.649000000000001" y1="-2.6495000000000033" x2="6.649000000000001" y2="2.6495000000000033" />
</g>
<g transform="matrix(1 0 0 1 898.14 888.44)"  >
<path style="stroke: none; stroke-width: 1; stroke-dasharray: none; stroke-linecap: butt; stroke-dashoffset: 0; stroke-linejoin: miter; stroke-miterlimit: 4; fill: rgb(255,255,255); fill-rule: nonzero; opacity: 1;" vector-effect="non-scaling-stroke"  transform=" translate(-645.45, -479.37)" d="M 703.241 497.897 L 594.913 497.897 C 590.9060000000001 497.897 587.657 494.64799999999997 587.657 490.64099999999996 L 587.657 468.09499999999997 C 587.657 464.08799999999997 590.9050000000001 460.83899999999994 594.913 460.83899999999994 L 703.241 460.83899999999994 L 703.241 497.897 z" stroke-linecap="round" />
</g>
<g transform="matrix(1 0 0 1 899.04 882.49)"  >
<rect style="stroke: none; stroke-width: 1; stroke-dasharray: none; stroke-linecap: butt; stroke-dashoffset: 0; stroke-linejoin: miter; stroke-miterlimit: 4; fill: rgb(163,213,230); fill-rule: nonzero; opacity: 0.4;" vector-effect="non-scaling-stroke"  x="-56.895" y="-1.02" rx="0" ry="0" width="113.79" height="2.04" />
</g>
<g transform="matrix(1 0 0 1 899.04 888.48)"  >
<rect style="stroke: none; stroke-width: 1; stroke-dasharray: none; stroke-linecap: butt; stroke-dashoffset: 0; stroke-linejoin: miter; stroke-miterlimit: 4; fill: rgb(163,213,230); fill-rule: nonzero; opacity: 0.4;" vector-effect="non-scaling-stroke"  x="-56.895" y="-1.02" rx="0" ry="0" width="113.79" height="2.04" />
</g>
<g transform="matrix(1 0 0 1 899.04 900.45)"  >
<rect style="stroke: none; stroke-width: 1; stroke-dasharray: none; stroke-linecap: butt; stroke-dashoffset: 0; stroke-linejoin: miter; stroke-miterlimit: 4; fill: rgb(163,213,230); fill-rule: nonzero; opacity: 0.4;" vector-effect="non-scaling-stroke"  x="-56.895" y="-1.02" rx="0" ry="0" width="113.79" height="2.04" />
</g>
<g transform="matrix(1 0 0 1 899.04 876.51)"  >
<rect style="stroke: none; stroke-width: 1; stroke-dasharray: none; stroke-linecap: butt; stroke-dashoffset: 0; stroke-linejoin: miter; stroke-miterlimit: 4; fill: rgb(163,213,230); fill-rule: nonzero; opacity: 0.4;" vector-effect="non-scaling-stroke"  x="-56.895" y="-1.02" rx="0" ry="0" width="113.79" height="2.04" />
</g>
<g transform="matrix(1 0 0 1 899.04 894.46)"  >
<rect style="stroke: none; stroke-width: 1; stroke-dasharray: none; stroke-linecap: butt; stroke-dashoffset: 0; stroke-linejoin: miter; stroke-miterlimit: 4; fill: rgb(163,213,230); fill-rule: nonzero; opacity: 0.4;" vector-effect="non-scaling-stroke"  x="-56.895" y="-1.02" rx="0" ry="0" width="113.79" height="2.04" />
</g>
<g transform="matrix(1 0 0 1 897.24 888.44)"  >
<path style="stroke: none; stroke-width: 1; stroke-dasharray: none; stroke-linecap: butt; stroke-dashoffset: 0; stroke-linejoin: miter; stroke-miterlimit: 4; fill: rgb(9,79,104); fill-rule: nonzero; opacity: 1;" vector-effect="non-scaling-stroke"  transform=" translate(-644.55, -479.37)" d="M 703.241 499.693 L 596.342 499.693 C 590.563 499.693 585.862 494.991 585.862 489.212 L 585.862 469.525 C 585.862 463.746 590.563 459.04499999999996 596.342 459.04499999999996 L 703.241 459.04499999999996 L 703.241 462.63599999999997 L 596.342 462.63599999999997 C 592.543 462.63599999999997 589.452 465.727 589.452 469.525 L 589.452 489.212 C 589.452 493.01099999999997 592.543 496.102 596.342 496.102 L 703.241 496.102 L 703.241 499.693 z" stroke-linecap="round" />
</g>
<g transform="matrix(1 0 0 1 955.94 906.97)"  >
<path style="stroke: rgb(195,62,93); stroke-width: 3; stroke-dasharray: none; stroke-linecap: butt; stroke-dashoffset: 0; stroke-linejoin: miter; stroke-miterlimit: 10; fill: none; fill-rule: nonzero; opacity: 1;" vector-effect="non-scaling-stroke"  transform=" translate(-703.24, -497.9)" d="M 703.241 497.897" stroke-linecap="round" />
</g>
<g transform="matrix(1 0 0 1 955.94 869.91)"  >
<path style="stroke: rgb(195,62,93); stroke-width: 3; stroke-dasharray: none; stroke-linecap: butt; stroke-dashoffset: 0; stroke-linejoin: miter; stroke-miterlimit: 10; fill: none; fill-rule: nonzero; opacity: 1;" vector-effect="non-scaling-stroke"  transform=" translate(-703.24, -460.84)" d="M 703.241 460.839" stroke-linecap="round" />
</g>
<g transform="matrix(1 0 0 1 940.55 891.35)"  >
<polygon style="stroke: none; stroke-width: 1; stroke-dasharray: none; stroke-linecap: butt; stroke-dashoffset: 0; stroke-linejoin: miter; stroke-miterlimit: 4; fill: rgb(195,62,93); fill-rule: nonzero; opacity: 1;" vector-effect="non-scaling-stroke"  points="7.2,9.89 0,2.7 -7.2,9.89 -7.2,-9.89 7.2,-9.89 " />
</g>
<g transform="matrix(1 0 0 1 905.47 840.53)"  >
<path style="stroke: none; stroke-width: 1; stroke-dasharray: none; stroke-linecap: butt; stroke-dashoffset: 0; stroke-linejoin: miter; stroke-miterlimit: 4; fill: rgb(195,62,93); fill-rule: nonzero; opacity: 1;" vector-effect="non-scaling-stroke"  transform=" translate(-652.78, -431.46)" d="M 671.675 413.001 L 670.0089999999999 413.001 L 670.0089999999999 407.782 L 619.281 407.782 L 619.281 429.769 C 619.281 443.555 630.29 454.782 644.002 455.118 C 644.207 455.133 644.4259999999999 455.133 644.645 455.133 C 649.381 455.133 653.811 453.832 657.597 451.566 C 661.398 449.29999999999995 664.5409999999999 446.06899999999996 666.72 442.224 L 671.6750000000001 442.224 C 679.73 442.224 686.2800000000001 435.65999999999997 686.2800000000001 427.605 C 686.28 419.551 679.731 413.001 671.675 413.001 z M 671.675 435.939 L 669.2189999999999 435.939 C 669.7159999999999 433.951 670.0079999999999 431.904 670.0079999999999 429.77000000000004 L 670.0079999999999 419.288 L 671.674 419.288 C 676.265 419.288 679.9929999999999 423.016 679.9929999999999 427.606 C 679.9929999999999 432.19599999999997 676.266 435.939 671.675 435.939 z" stroke-linecap="round" />
</g>
<g transform="matrix(1 0 0 1 898.35 864.2)"  >
<path style="stroke: none; stroke-width: 1; stroke-dasharray: none; stroke-linecap: butt; stroke-dashoffset: 0; stroke-linejoin: miter; stroke-miterlimit: 4; fill: rgb(84,179,205); fill-rule: nonzero; opacity: 1;" vector-effect="non-scaling-stroke"  transform=" translate(-645.66, -455.13)" d="M 673.441 459.044 L 617.883 459.044 C 614.9250000000001 459.044 612.527 456.64599999999996 612.527 453.688 L 612.527 451.214 L 678.797 451.214 L 678.797 453.688 C 678.798 456.646 676.4 459.044 673.441 459.044 z" stroke-linecap="round" />
</g>
<g transform="matrix(1 0 0 1 915.39 806.13)"  >
<path style="stroke: none; stroke-width: 1; stroke-dasharray: none; stroke-linecap: butt; stroke-dashoffset: 0; stroke-linejoin: miter; stroke-miterlimit: 4; fill: rgb(255,255,255); fill-rule: nonzero; opacity: 1;" vector-effect="non-scaling-stroke"  transform=" translate(-662.71, -397.05)" d="M 661.184 407.783 L 654.5269999999999 407.783 L 665.3919999999999 387.849 C 665.9039999999999 386.90999999999997 666.8879999999999 386.325 667.958 386.325 L 667.958 386.325 C 670.1759999999999 386.325 671.5849999999999 388.699 670.524 390.646 L 661.184 407.783 z" stroke-linecap="round" />
</g>
<g transform="matrix(1 0 0 1 887.8 825.12)"  >
<rect style="stroke: none; stroke-width: 1; stroke-dasharray: none; stroke-linecap: butt; stroke-dashoffset: 0; stroke-linejoin: miter; stroke-miterlimit: 4; fill: rgb(255,255,255); fill-rule: nonzero; opacity: 1;" vector-effect="non-scaling-stroke"  x="-0.73" y="-8.26" rx="0" ry="0" width="1.46" height="16.52" />
</g>
<g transform="matrix(1 0 0 1 887.8 833.38)"  >
<rect style="stroke: none; stroke-width: 1; stroke-dasharray: none; stroke-linecap: butt; stroke-dashoffset: 0; stroke-linejoin: miter; stroke-miterlimit: 4; fill: rgb(255,255,255); fill-rule: nonzero; opacity: 1;" vector-effect="non-scaling-stroke"  x="-6.435" y="-6.435" rx="0" ry="0" width="12.87" height="12.87" />
</g>
<g transform="matrix(1 0 0 1 898.3 541)"  >
<path style="stroke: none; stroke-width: 1; stroke-dasharray: none; stroke-linecap: butt; stroke-dashoffset: 0; stroke-linejoin: miter; stroke-miterlimit: 4; fill: rgb(255,255,255); fill-rule: nonzero; opacity: 1;" vector-effect="non-scaling-stroke"  transform=" translate(-645.61, -131.93)" d="M 674.464 96.429 L 616.7560000000001 96.429 C 613.0830000000001 96.429 610.1050000000001 99.407 610.1050000000001 103.08 L 610.1050000000001 160.788 C 610.1050000000001 164.461 613.0820000000001 167.43800000000002 616.7560000000001 167.43800000000002 L 674.464 167.43800000000002 C 678.1370000000001 167.43800000000002 681.115 164.461 681.115 160.788 L 681.115 103.08 C 681.114 99.407 678.136 96.429 674.464 96.429 z" stroke-linecap="round" />
</g>
<g transform="matrix(1 0 0 1 893.94 542.93)" style=""  >
		<text xml:space="preserve" font-family="'Montserrat-Black'" font-size="26.7494" font-style="normal" font-weight="normal" style="stroke: none; stroke-width: 1; stroke-dasharray: none; stroke-linecap: butt; stroke-dashoffset: 0; stroke-linejoin: miter; stroke-miterlimit: 4; fill: rgb(184,61,93); fill-rule: nonzero; opacity: 1; white-space: pre;" ><tspan x="-18.8" y="8.4" >&lt;/&gt;</tspan></text>
</g>
<g transform="matrix(1 0 0 1 898.3 714.65)"  >
<path style="stroke: none; stroke-width: 1; stroke-dasharray: none; stroke-linecap: butt; stroke-dashoffset: 0; stroke-linejoin: miter; stroke-miterlimit: 4; fill: rgb(184,61,93); fill-rule: nonzero; opacity: 1;" vector-effect="non-scaling-stroke"  transform=" translate(-645.61, -305.58)" d="M 674.464 270.079 L 616.7560000000001 270.079 C 613.0830000000001 270.079 610.1050000000001 273.057 610.1050000000001 276.73 L 610.1050000000001 334.438 C 610.1050000000001 338.111 613.0820000000001 341.08799999999997 616.7560000000001 341.08799999999997 L 674.464 341.08799999999997 C 678.1370000000001 341.08799999999997 681.115 338.111 681.115 334.438 L 681.115 276.73 C 681.114 273.057 678.136 270.079 674.464 270.079 z" stroke-linecap="round" />
</g>
<g transform="matrix(1 0 0 1 898.76 714.03)" style=""  >
		<text xml:space="preserve" font-family="'Montserrat-Black'" font-size="26.7494" font-style="normal" font-weight="normal" style="stroke: none; stroke-width: 1; stroke-dasharray: none; stroke-linecap: butt; stroke-dashoffset: 0; stroke-linejoin: miter; stroke-miterlimit: 4; fill: rgb(255,255,255); fill-rule: nonzero; opacity: 1; white-space: pre;" ><tspan x="-16.18" y="8.4" >{ }</tspan></text>
</g>
<g transform="matrix(1 0 0 1 898.3 627.83)"  >
<path style="stroke: none; stroke-width: 1; stroke-dasharray: none; stroke-linecap: butt; stroke-dashoffset: 0; stroke-linejoin: miter; stroke-miterlimit: 4; fill: rgb(84,179,205); fill-rule: nonzero; opacity: 1;" vector-effect="non-scaling-stroke"  transform=" translate(-645.61, -218.76)" d="M 674.464 183.254 L 616.7560000000001 183.254 C 613.0830000000001 183.254 610.1050000000001 186.232 610.1050000000001 189.905 L 610.1050000000001 247.613 C 610.1050000000001 251.286 613.0820000000001 254.263 616.7560000000001 254.263 L 674.464 254.263 C 678.1370000000001 254.263 681.115 251.286 681.115 247.613 L 681.115 189.905 C 681.114 186.232 678.136 183.254 674.464 183.254 z" stroke-linecap="round" />
</g>
<g transform="matrix(1 0 0 1 898.3 627.83)"  >
<path style="stroke: none; stroke-width: 1; stroke-dasharray: none; stroke-linecap: butt; stroke-dashoffset: 0; stroke-linejoin: miter; stroke-miterlimit: 4; fill: rgb(255,255,255); fill-rule: nonzero; opacity: 1;" vector-effect="non-scaling-stroke"  transform=" translate(-645.61, -218.76)" d="M 657.125 218.919 C 657.125 218.864 657.132 218.815 657.132 218.75900000000001 C 657.132 218.70300000000003 657.125 218.655 657.125 218.60600000000002 C 657.924 218.23800000000003 658.73 217.81400000000002 659.523 217.29900000000004 C 660.371 216.71500000000003 661.2330000000001 216.04100000000003 662.032 215.27000000000004 L 661.8580000000001 214.58900000000003 C 661.691 213.81800000000004 661.392 213.07400000000004 661.1210000000001 212.33000000000004 C 660.9680000000001 211.96900000000005 660.7870000000001 211.61400000000003 660.6140000000001 211.26000000000005 C 660.4540000000002 210.89200000000005 660.2600000000001 210.55100000000004 660.0440000000001 210.21800000000005 L 659.6830000000001 209.62000000000003 C 658.5920000000001 209.62700000000004 657.4870000000001 209.76600000000002 656.4790000000002 209.95400000000004 C 655.5690000000002 210.14200000000002 654.6860000000001 210.41300000000004 653.8660000000001 210.72500000000002 L 653.6440000000001 210.50300000000001 C 653.9500000000002 209.67600000000002 654.2280000000001 208.8 654.4090000000001 207.89000000000001 C 654.6030000000001 206.882 654.7420000000001 205.77700000000002 654.7490000000001 204.686 L 654.1510000000002 204.32500000000002 C 653.8170000000002 204.11 653.4700000000001 203.91500000000002 653.1090000000002 203.75500000000002 C 652.7540000000001 203.58100000000002 652.4000000000002 203.40000000000003 652.0310000000002 203.247 C 651.2870000000001 202.97600000000003 650.5510000000002 202.67700000000002 649.7790000000002 202.51000000000002 L 649.0980000000002 202.336 C 648.3270000000002 203.13500000000002 647.6520000000002 203.99 647.0680000000002 204.845 C 646.5540000000002 205.631 646.1300000000002 206.437 645.7620000000002 207.243 C 645.7130000000002 207.243 645.6580000000001 207.22899999999998 645.6090000000002 207.22899999999998 C 645.5530000000001 207.22899999999998 645.5050000000001 207.243 645.4490000000002 207.243 C 645.0880000000002 206.43699999999998 644.6570000000002 205.631 644.1420000000002 204.845 C 643.5660000000001 203.99 642.8840000000001 203.135 642.1200000000001 202.336 L 641.4390000000001 202.51000000000002 C 640.6600000000001 202.67700000000002 639.9240000000001 202.97600000000003 639.1800000000001 203.247 C 638.8180000000001 203.4 638.464 203.58100000000002 638.1020000000001 203.75500000000002 C 637.7410000000001 203.91500000000002 637.4000000000001 204.10900000000004 637.0600000000001 204.32500000000002 L 636.4620000000001 204.686 C 636.4760000000001 205.77700000000002 636.6150000000001 206.882 636.8030000000001 207.89000000000001 C 636.9900000000001 208.8 637.2610000000001 209.67600000000002 637.5740000000001 210.50300000000001 C 637.498 210.579 637.421 210.649 637.3520000000001 210.72500000000002 C 636.5250000000001 210.41200000000003 635.6490000000001 210.14100000000002 634.739 209.95400000000004 C 633.731 209.76600000000005 632.619 209.62700000000004 631.5350000000001 209.62000000000003 L 631.167 210.21800000000005 C 630.9590000000001 210.55100000000004 630.764 210.89200000000005 630.597 211.26000000000005 C 630.43 211.61400000000006 630.249 211.96900000000005 630.096 212.33000000000004 C 629.818 213.07400000000004 629.526 213.81700000000004 629.36 214.58900000000003 L 629.186 215.27000000000004 C 629.985 216.04100000000003 630.84 216.71600000000004 631.695 217.29900000000004 C 632.48 217.81300000000005 633.2860000000001 218.23700000000002 634.086 218.60600000000002 C 634.086 218.65500000000003 634.0790000000001 218.70300000000003 634.0790000000001 218.75900000000001 C 634.0790000000001 218.815 634.086 218.86300000000003 634.086 218.919 C 633.287 219.28 632.481 219.711 631.695 220.226 C 630.84 220.803 629.985 221.484 629.186 222.248 L 629.36 222.929 C 629.527 223.7 629.818 224.444 630.096 225.188 C 630.249 225.54899999999998 630.43 225.904 630.597 226.265 C 630.764 226.62599999999998 630.958 226.96699999999998 631.167 227.29999999999998 L 631.5350000000001 227.898 C 632.619 227.891 633.7310000000001 227.752 634.739 227.564 C 635.649 227.376 636.525 227.105 637.3520000000001 226.793 C 637.421 226.869 637.498 226.946 637.5740000000001 227.01600000000002 C 637.2610000000001 227.84300000000002 636.9900000000001 228.71900000000002 636.8030000000001 229.62900000000002 C 636.6150000000001 230.63700000000003 636.4760000000001 231.74900000000002 636.4620000000001 232.83300000000003 L 637.0600000000001 233.20100000000002 C 637.4010000000001 233.40900000000002 637.7410000000001 233.604 638.1020000000001 233.764 C 638.464 233.93800000000002 638.8180000000001 234.119 639.1800000000001 234.27100000000002 C 639.9230000000001 234.549 640.6600000000001 234.841 641.4390000000001 235.008 L 642.1200000000001 235.18200000000002 C 642.8850000000001 234.383 643.5660000000001 233.52800000000002 644.1420000000002 232.67300000000003 C 644.6560000000002 231.88800000000003 645.0870000000002 231.08100000000002 645.4490000000002 230.27500000000003 C 645.5040000000001 230.28200000000004 645.5530000000002 230.28900000000004 645.6090000000002 230.28900000000004 C 645.6580000000001 230.28900000000004 645.7130000000002 230.28200000000004 645.7620000000002 230.27500000000003 C 646.1310000000002 231.08100000000005 646.5540000000002 231.88700000000003 647.0680000000002 232.67300000000003 C 647.6520000000002 233.52800000000002 648.3260000000002 234.38300000000004 649.0980000000002 235.18200000000002 L 649.7790000000002 235.008 C 650.5500000000002 234.841 651.2870000000003 234.549 652.0310000000002 234.27100000000002 C 652.4000000000002 234.11800000000002 652.7540000000001 233.937 653.1090000000002 233.764 C 653.4700000000001 233.604 653.8180000000001 233.41 654.1510000000002 233.20100000000002 L 654.7490000000001 232.83300000000003 C 654.7420000000002 231.74900000000002 654.6030000000002 230.63700000000003 654.4090000000001 229.62900000000002 C 654.2280000000001 228.71800000000002 653.9500000000002 227.84300000000002 653.6440000000001 227.01600000000002 C 653.7200000000001 226.94600000000003 653.7900000000001 226.87000000000003 653.8660000000001 226.793 C 654.6860000000001 227.106 655.5690000000001 227.377 656.4790000000002 227.564 C 657.4870000000002 227.75199999999998 658.5920000000002 227.891 659.6830000000001 227.898 L 660.0440000000001 227.29999999999998 C 660.2600000000001 226.96699999999998 660.4540000000001 226.62599999999998 660.6140000000001 226.265 C 660.7880000000001 225.904 660.9680000000002 225.54899999999998 661.1210000000001 225.188 C 661.392 224.444 661.6910000000001 223.701 661.8580000000001 222.929 L 662.032 222.248 C 661.2330000000001 221.48399999999998 660.3710000000001 220.802 659.523 220.226 C 658.731 219.711 657.924 219.28 657.125 218.919 z M 645.609 224.27 C 642.565 224.27 640.0980000000001 221.803 640.0980000000001 218.75900000000001 C 640.0980000000001 215.715 642.565 213.24800000000002 645.609 213.24800000000002 C 648.653 213.24800000000002 651.12 215.71500000000003 651.12 218.75900000000001 C 651.12 221.803 648.653 224.27 645.609 224.27 z" stroke-linecap="round" />
</g>
<g transform="matrix(1 0 0 1 464.52 597.66)"  >
<path style="stroke: none; stroke-width: 1; stroke-dasharray: none; stroke-linecap: butt; stroke-dashoffset: 0; stroke-linejoin: miter; stroke-miterlimit: 4; fill: rgb(84,179,205); fill-rule: nonzero; opacity: 1;" vector-effect="non-scaling-stroke"  transform=" translate(-211.83, -188.59)" d="M 345.409 96.272 L 78.242 96.272 C 70.26100000000001 96.272 63.791000000000004 102.742 63.791000000000004 110.72300000000001 L 63.791000000000004 266.453 C 63.791000000000004 274.43399999999997 70.26100000000001 280.904 78.242 280.904 L 345.409 280.904 C 353.39 280.904 359.86 274.43399999999997 359.86 266.453 L 359.86 110.72299999999998 C 359.86 102.742 353.39 96.272 345.409 96.272 z" stroke-linecap="round" />
</g>
<g transform="matrix(1 0 0 1 363.81 608.31)"  >
<line style="stroke: rgb(255,255,255); stroke-width: 1; stroke-dasharray: none; stroke-linecap: butt; stroke-dashoffset: 0; stroke-linejoin: miter; stroke-miterlimit: 10; fill: none; fill-rule: nonzero; opacity: 1;" vector-effect="non-scaling-stroke"  x1="0" y1="-54.51950000000001" x2="0" y2="54.51950000000001" />
</g>
<g transform="matrix(1 0 0 1 349.4 558.68)"  >
<circle style="stroke: none; stroke-width: 1; stroke-dasharray: none; stroke-linecap: butt; stroke-dashoffset: 0; stroke-linejoin: miter; stroke-miterlimit: 4; fill: rgb(255,255,255); fill-rule: nonzero; opacity: 1;" vector-effect="non-scaling-stroke"  cx="0" cy="0" r="4.712" />
</g>
<g transform="matrix(1 0 0 1 400.23 558.68)"  >
<rect style="stroke: none; stroke-width: 1; stroke-dasharray: none; stroke-linecap: butt; stroke-dashoffset: 0; stroke-linejoin: miter; stroke-miterlimit: 4; fill: rgb(0,104,144); fill-rule: nonzero; opacity: 1;" vector-effect="non-scaling-stroke"  x="-27" y="-4.715" rx="0" ry="0" width="54" height="9.43" />
</g>
<g transform="matrix(1 0 0 1 471.72 558.68)"  >
<rect style="stroke: none; stroke-width: 1; stroke-dasharray: none; stroke-linecap: butt; stroke-dashoffset: 0; stroke-linejoin: miter; stroke-miterlimit: 4; fill: rgb(255,211,72); fill-rule: nonzero; opacity: 1;" vector-effect="non-scaling-stroke"  x="-35.06" y="-4.715" rx="0" ry="0" width="70.12" height="9.43" />
</g>
<g transform="matrix(1 0 0 1 542.72 558.68)"  >
<rect style="stroke: none; stroke-width: 1; stroke-dasharray: none; stroke-linecap: butt; stroke-dashoffset: 0; stroke-linejoin: miter; stroke-miterlimit: 4; fill: rgb(255,255,255); fill-rule: nonzero; opacity: 1;" vector-effect="non-scaling-stroke"  x="-26.775" y="-4.715" rx="0" ry="0" width="53.55" height="9.43" />
</g>
<g transform="matrix(1 0 0 1 349.4 575.26)"  >
<circle style="stroke: none; stroke-width: 1; stroke-dasharray: none; stroke-linecap: butt; stroke-dashoffset: 0; stroke-linejoin: miter; stroke-miterlimit: 4; fill: rgb(255,255,255); fill-rule: nonzero; opacity: 1;" vector-effect="non-scaling-stroke"  cx="0" cy="0" r="4.712" />
</g>
<g transform="matrix(1 0 0 1 433.34 575.26)"  >
<rect style="stroke: none; stroke-width: 1; stroke-dasharray: none; stroke-linecap: butt; stroke-dashoffset: 0; stroke-linejoin: miter; stroke-miterlimit: 4; fill: rgb(0,104,144); fill-rule: nonzero; opacity: 1;" vector-effect="non-scaling-stroke"  x="-60.11" y="-4.715" rx="0" ry="0" width="120.22" height="9.43" />
</g>
<g transform="matrix(1 0 0 1 517.49 575.26)"  >
<rect style="stroke: none; stroke-width: 1; stroke-dasharray: none; stroke-linecap: butt; stroke-dashoffset: 0; stroke-linejoin: miter; stroke-miterlimit: 4; fill: rgb(255,211,72); fill-rule: nonzero; opacity: 1;" vector-effect="non-scaling-stroke"  x="-14.61" y="-4.715" rx="0" ry="0" width="29.22" height="9.43" />
</g>
<g transform="matrix(1 0 0 1 555.38 575.26)"  >
<rect style="stroke: none; stroke-width: 1; stroke-dasharray: none; stroke-linecap: butt; stroke-dashoffset: 0; stroke-linejoin: miter; stroke-miterlimit: 4; fill: rgb(255,255,255); fill-rule: nonzero; opacity: 1;" vector-effect="non-scaling-stroke"  x="-14.115" y="-4.715" rx="0" ry="0" width="28.23" height="9.43" />
</g>
<g transform="matrix(1 0 0 1 349.4 591.83)"  >
<circle style="stroke: none; stroke-width: 1; stroke-dasharray: none; stroke-linecap: butt; stroke-dashoffset: 0; stroke-linejoin: miter; stroke-miterlimit: 4; fill: rgb(255,255,255); fill-rule: nonzero; opacity: 1;" vector-effect="non-scaling-stroke"  cx="0" cy="0" r="4.712" />
</g>
<g transform="matrix(1 0 0 1 404.94 591.83)"  >
<rect style="stroke: none; stroke-width: 1; stroke-dasharray: none; stroke-linecap: butt; stroke-dashoffset: 0; stroke-linejoin: miter; stroke-miterlimit: 4; fill: rgb(0,104,144); fill-rule: nonzero; opacity: 1;" vector-effect="non-scaling-stroke"  x="-31.715" y="-4.715" rx="0" ry="0" width="63.43" height="9.43" />
</g>
<g transform="matrix(1 0 0 1 489.09 591.83)"  >
<rect style="stroke: none; stroke-width: 1; stroke-dasharray: none; stroke-linecap: butt; stroke-dashoffset: 0; stroke-linejoin: miter; stroke-miterlimit: 4; fill: rgb(255,211,72); fill-rule: nonzero; opacity: 1;" vector-effect="non-scaling-stroke"  x="-43.005" y="-4.715" rx="0" ry="0" width="86.01" height="9.43" />
</g>
<g transform="matrix(1 0 0 1 555.38 591.83)"  >
<rect style="stroke: none; stroke-width: 1; stroke-dasharray: none; stroke-linecap: butt; stroke-dashoffset: 0; stroke-linejoin: miter; stroke-miterlimit: 4; fill: rgb(255,255,255); fill-rule: nonzero; opacity: 1;" vector-effect="non-scaling-stroke"  x="-14.115" y="-4.715" rx="0" ry="0" width="28.23" height="9.43" />
</g>
<g transform="matrix(1 0 0 1 349.4 608.4)"  >
<circle style="stroke: none; stroke-width: 1; stroke-dasharray: none; stroke-linecap: butt; stroke-dashoffset: 0; stroke-linejoin: miter; stroke-miterlimit: 4; fill: rgb(255,255,255); fill-rule: nonzero; opacity: 1;" vector-effect="non-scaling-stroke"  cx="0" cy="0" r="4.712" />
</g>
<g transform="matrix(1 0 0 1 380.76 608.4)"  >
<rect style="stroke: none; stroke-width: 1; stroke-dasharray: none; stroke-linecap: butt; stroke-dashoffset: 0; stroke-linejoin: miter; stroke-miterlimit: 4; fill: rgb(0,104,144); fill-rule: nonzero; opacity: 1;" vector-effect="non-scaling-stroke"  x="-7.53" y="-4.715" rx="0" ry="0" width="15.06" height="9.43" />
</g>
<g transform="matrix(1 0 0 1 417.19 608.4)"  >
<rect style="stroke: none; stroke-width: 1; stroke-dasharray: none; stroke-linecap: butt; stroke-dashoffset: 0; stroke-linejoin: miter; stroke-miterlimit: 4; fill: rgb(255,211,72); fill-rule: nonzero; opacity: 1;" vector-effect="non-scaling-stroke"  x="-19.47" y="-4.715" rx="0" ry="0" width="38.94" height="9.43" />
</g>
<g transform="matrix(1 0 0 1 507.66 608.4)"  >
<rect style="stroke: none; stroke-width: 1; stroke-dasharray: none; stroke-linecap: butt; stroke-dashoffset: 0; stroke-linejoin: miter; stroke-miterlimit: 4; fill: rgb(255,255,255); fill-rule: nonzero; opacity: 1;" vector-effect="non-scaling-stroke"  x="-61.835" y="-4.715" rx="0" ry="0" width="123.67" height="9.43" />
</g>
<g transform="matrix(1 0 0 1 349.4 624.97)"  >
<circle style="stroke: none; stroke-width: 1; stroke-dasharray: none; stroke-linecap: butt; stroke-dashoffset: 0; stroke-linejoin: miter; stroke-miterlimit: 4; fill: rgb(255,255,255); fill-rule: nonzero; opacity: 1;" vector-effect="non-scaling-stroke"  cx="0" cy="0" r="4.712" />
</g>
<g transform="matrix(1 0 0 1 400.23 624.97)"  >
<rect style="stroke: none; stroke-width: 1; stroke-dasharray: none; stroke-linecap: butt; stroke-dashoffset: 0; stroke-linejoin: miter; stroke-miterlimit: 4; fill: rgb(0,104,144); fill-rule: nonzero; opacity: 1;" vector-effect="non-scaling-stroke"  x="-27" y="-4.715" rx="0" ry="0" width="54" height="9.43" />
</g>
<g transform="matrix(1 0 0 1 484.38 624.97)"  >
<rect style="stroke: none; stroke-width: 1; stroke-dasharray: none; stroke-linecap: butt; stroke-dashoffset: 0; stroke-linejoin: miter; stroke-miterlimit: 4; fill: rgb(255,211,72); fill-rule: nonzero; opacity: 1;" vector-effect="non-scaling-stroke"  x="-47.72" y="-4.715" rx="0" ry="0" width="95.44" height="9.43" />
</g>
<g transform="matrix(1 0 0 1 555.38 624.97)"  >
<rect style="stroke: none; stroke-width: 1; stroke-dasharray: none; stroke-linecap: butt; stroke-dashoffset: 0; stroke-linejoin: miter; stroke-miterlimit: 4; fill: rgb(255,255,255); fill-rule: nonzero; opacity: 1;" vector-effect="non-scaling-stroke"  x="-14.115" y="-4.715" rx="0" ry="0" width="28.23" height="9.43" />
</g>
<g transform="matrix(1 0 0 1 349.4 641.55)"  >
<path style="stroke: none; stroke-width: 1; stroke-dasharray: none; stroke-linecap: butt; stroke-dashoffset: 0; stroke-linejoin: miter; stroke-miterlimit: 4; fill: rgb(255,255,255); fill-rule: nonzero; opacity: 1;" vector-effect="non-scaling-stroke"  transform=" translate(-96.7, -232.47)" d="M 101.413 232.473 C 101.413 235.07600000000002 99.303 237.185 96.701 237.185 C 94.09899999999999 237.185 91.98899999999999 235.075 91.98899999999999 232.473 C 91.98899999999999 229.87100000000004 94.09899999999999 227.76000000000002 96.701 227.76000000000002 C 99.303 227.76000000000002 101.413 229.87 101.413 232.473 z" stroke-linecap="round" />
</g>
<g transform="matrix(1 0 0 1 418.44 641.55)"  >
<rect style="stroke: none; stroke-width: 1; stroke-dasharray: none; stroke-linecap: butt; stroke-dashoffset: 0; stroke-linejoin: miter; stroke-miterlimit: 4; fill: rgb(0,104,144); fill-rule: nonzero; opacity: 1;" vector-effect="non-scaling-stroke"  x="-45.215" y="-4.715" rx="0" ry="0" width="90.43" height="9.43" />
</g>
<g transform="matrix(1 0 0 1 489.93 641.55)"  >
<rect style="stroke: none; stroke-width: 1; stroke-dasharray: none; stroke-linecap: butt; stroke-dashoffset: 0; stroke-linejoin: miter; stroke-miterlimit: 4; fill: rgb(255,211,72); fill-rule: nonzero; opacity: 1;" vector-effect="non-scaling-stroke"  x="-16.845" y="-4.715" rx="0" ry="0" width="33.69" height="9.43" />
</g>
<g transform="matrix(1 0 0 1 542.72 641.55)"  >
<rect style="stroke: none; stroke-width: 1; stroke-dasharray: none; stroke-linecap: butt; stroke-dashoffset: 0; stroke-linejoin: miter; stroke-miterlimit: 4; fill: rgb(255,255,255); fill-rule: nonzero; opacity: 1;" vector-effect="non-scaling-stroke"  x="-26.775" y="-4.715" rx="0" ry="0" width="53.55" height="9.43" />
</g>
<g transform="matrix(1 0 0 1 349.4 658.12)"  >
<circle style="stroke: none; stroke-width: 1; stroke-dasharray: none; stroke-linecap: butt; stroke-dashoffset: 0; stroke-linejoin: miter; stroke-miterlimit: 4; fill: rgb(255,255,255); fill-rule: nonzero; opacity: 1;" vector-effect="non-scaling-stroke"  cx="0" cy="0" r="4.712" />
</g>
<g transform="matrix(1 0 0 1 388.29 658.12)"  >
<rect style="stroke: none; stroke-width: 1; stroke-dasharray: none; stroke-linecap: butt; stroke-dashoffset: 0; stroke-linejoin: miter; stroke-miterlimit: 4; fill: rgb(0,104,144); fill-rule: nonzero; opacity: 1;" vector-effect="non-scaling-stroke"  x="-15.065" y="-4.715" rx="0" ry="0" width="30.13" height="9.43" />
</g>
<g transform="matrix(1 0 0 1 472.44 658.12)"  >
<rect style="stroke: none; stroke-width: 1; stroke-dasharray: none; stroke-linecap: butt; stroke-dashoffset: 0; stroke-linejoin: miter; stroke-miterlimit: 4; fill: rgb(255,211,72); fill-rule: nonzero; opacity: 1;" vector-effect="non-scaling-stroke"  x="-59.655" y="-4.715" rx="0" ry="0" width="119.31" height="9.43" />
</g>
<g transform="matrix(1 0 0 1 555.38 658.12)"  >
<rect style="stroke: none; stroke-width: 1; stroke-dasharray: none; stroke-linecap: butt; stroke-dashoffset: 0; stroke-linejoin: miter; stroke-miterlimit: 4; fill: rgb(255,255,255); fill-rule: nonzero; opacity: 1;" vector-effect="non-scaling-stroke"  x="-14.115" y="-4.715" rx="0" ry="0" width="28.23" height="9.43" />
</g>
<g transform="matrix(1 0 0 1 579.15 608.31)"  >
<line style="stroke: rgb(255,255,255); stroke-width: 1; stroke-dasharray: none; stroke-linecap: butt; stroke-dashoffset: 0; stroke-linejoin: miter; stroke-miterlimit: 10; fill: none; fill-rule: nonzero; opacity: 1;" vector-effect="non-scaling-stroke"  x1="0" y1="-54.51950000000001" x2="0" y2="54.51950000000001" />
</g>
<g transform="matrix(1 0 0 1 420.42 533.59)" style=""  >
		<text xml:space="preserve" font-family="'Montserrat-Black'" font-size="12" font-style="normal" font-weight="normal" style="stroke: none; stroke-width: 1; stroke-dasharray: none; stroke-linecap: butt; stroke-dashoffset: 0; stroke-linejoin: miter; stroke-miterlimit: 4; fill: rgb(255,255,255); fill-rule: nonzero; opacity: 1; white-space: pre;" ><tspan x="-56.62" y="3.77" >APP DEVELOPMENT</tspan></text>
</g>
<g transform="matrix(1 0 0 1 360.21 842.01)"  >
<path style="stroke: none; stroke-width: 1; stroke-dasharray: none; stroke-linecap: butt; stroke-dashoffset: 0; stroke-linejoin: miter; stroke-miterlimit: 4; fill: rgb(79,79,142); fill-rule: nonzero; opacity: 1;" vector-effect="non-scaling-stroke"  transform=" translate(-107.51, -432.94)" d="M 168.269 500 L 46.759 500 C 49.869 481.57 58.339 473.24 67.299 467.38 C 79.778 459.2 93.209 455.85 94.47900000000001 436.84 C 95.09900000000002 427.65999999999997 94.44900000000001 419.01 93.10900000000001 411.15 C 88.459 383.94 75.27900000000001 365.87 75.27900000000001 365.87 L 139.779 365.87 C 139.779 365.87 126.56899999999999 383.97 121.919 411.15 C 120.54899999999999 419.01 119.929 427.65999999999997 120.529 436.84 C 121.65899999999999 453.30999999999995 131.839 458.03 142.649 464.28 C 142.699 464.30999999999995 142.769 464.35999999999996 142.819 464.35999999999996 C 144.469 465.30999999999995 146.129 466.29999999999995 147.759 467.37999999999994 C 156.709 473.25 165.169 481.59 168.269 500 z" stroke-linecap="round" />
</g>
<g transform="matrix(1 0 0 1 644.26 523.26)"  >
<path style="stroke: none; stroke-width: 1; stroke-dasharray: none; stroke-linecap: butt; stroke-dashoffset: 0; stroke-linejoin: miter; stroke-miterlimit: 4; fill: rgb(30,171,130); fill-rule: nonzero; opacity: 1;" vector-effect="non-scaling-stroke"  transform=" translate(-391.56, -114.18)" d="M 408.962 109.958 C 411.295 119.569 405.396 129.251 395.78499999999997 131.584 C 386.174 133.917 376.49199999999996 128.018 374.159 118.40700000000001 C 371.82599999999996 108.796 377.72499999999997 99.114 387.336 96.781 C 396.946 94.448 406.629 100.348 408.962 109.958 z" stroke-linecap="round" />
</g>
<g transform="matrix(1 0 0 1 644.07 524.56)"  >
<path style="stroke: none; stroke-width: 1; stroke-dasharray: none; stroke-linecap: butt; stroke-dashoffset: 0; stroke-linejoin: miter; stroke-miterlimit: 4; fill: rgb(255,255,255); fill-rule: nonzero; opacity: 1;" vector-effect="non-scaling-stroke"  transform=" translate(-391.38, -115.48)" d="M 387.451 125.554 L 380.387 114.055 C 379.674 112.894 380.037 111.375 381.198 110.662 L 381.198 110.662 C 382.359 109.94900000000001 383.878 110.31200000000001 384.59099999999995 111.47300000000001 L 388.2289999999999 117.39400000000002 L 398.4529999999999 106.21600000000002 C 399.3719999999999 105.21100000000003 400.93299999999994 105.14100000000002 401.93799999999993 106.06000000000002 L 401.93799999999993 106.06000000000002 C 402.9439999999999 106.98000000000002 403.0129999999999 108.54000000000002 402.09399999999994 109.54600000000002 L 387.451 125.554 z" stroke-linecap="round" />
</g>
</svg>